PathFileType	4	(X/Y/Z)	Kaydara																																																																																																																									
DataRate	CameraRate	NumFrames	NumMarkers	Units	OrigDataRate	OrigDataStartFrame	OrigNumFrames																																																																																																																					
30	30	8	41	mm	30	179	266																																																																																																																					
Frame#	Time	SALE_LFHD			SALE_RFHD			SALE_LBHD			SALE_RBHD			SALE_LFTShould			SALE_RFTShould			SALE_LRRShould			SALE_RRRShould			SALE_T10			SALE_STRN			SALE_TRUN			SALE_LSHO			SALE_LUPA			SALE_LELB			SALE_LFRM			SALE_LWRA			SALE_LWRB			SALE_LFIN			SALE_RSHO			SALE_RUPA			SALE_RELB			SALE_RFRM			SALE_RWRB			SALE_RFIN			SALE_LFWT			SALE_RFWT			SALE_LBWT			SALE_RBWT			SALE_LTHI			SALE_LKNE			SALE_RWRA			SALE_LSHN			SALE_LANK			SALE_LHEE			SALE_LTOE			SALE_RTHI			SALE_RKNE			SALE_RSHN			SALE_RANK			SALE_RHEE			SALE_RTOE		
		X1	Y1	Z1	X2	Y2	Z2	X3	Y3	Z3	X4	Y4	Z4	X5	Y5	Z5	X6	Y6	Z6	X7	Y7	Z7	X8	Y8	Z8	X9	Y9	Z9	X10	Y10	Z10	X11	Y11	Z11	X12	Y12	Z12	X13	Y13	Z13	X14	Y14	Z14	X15	Y15	Z15	X16	Y16	Z16	X17	Y17	Z17	X18	Y18	Z18	X19	Y19	Z19	X20	Y20	Z20	X21	Y21	Z21	X22	Y22	Z22	X23	Y23	Z23	X24	Y24	Z24	X25	Y25	Z25	X26	Y26	Z26	X27	Y27	Z27	X28	Y28	Z28	X29	Y29	Z29	X30	Y30	Z30	X31	Y31	Z31	X32	Y32	Z32	X33	Y33	Z33	X34	Y34	Z34	X35	Y35	Z35	X36	Y36	Z36	X37	Y37	Z37	X38	Y38	Z38	X39	Y39	Z39	X40	Y40	Z40	X41	Y41	Z41
																																																																																																																												
134	5.933	234.10456	1591.02951	-124.72118	104.49483	1575.28793	-131.70227	236.14084	1603.78555	-256.2875	111.26413	1587.1669	-257.25428	263.92687	1331.23123	-210.70595	123.97679	1333.7915	-199.04167	252.86432	1397.96539	-317.62484	102.57506	1408.07434	-298.22041	165.06891	1255.55809	-389.51237	189.39016	1257.6133	-164.10492	185.46144	1169.15169	-129.38375	375.63633	1357.25372	-286.19141	406.6848	1139.8951	-311.77185	384.95869	1031.05232	-331.13476	414.20887	925.07339	-312.76052	357.00932	783.88069	-248.26731	417.06211	777.82745	-296.29005	418.45863	731.86279	-251.47961	12.41871	1372.22778	-249.44296	-33.58596	1143.21938	-312.00823	-57.68442	1043.53058	-262.13524	-52.05582	928.81104	-264.69273	-62.60526	795.5584	-206.08469	-63.04574	762.98119	-146.42043	301.0948	940.48325	-188.27997	24.28236	925.37422	-207.33423	257.21045	987.31064	-363.89915	76.75385	988.23357	-373.78029	313.42272	617.97794	-269.11856	293.35527	478.37639	-140.57459	-8.76943	812.79907	-155.74992	288.11346	288.1822	-89.21275	284.46753	100.05892	-84.01609	247.02133	48.23472	-139.02961	254.2684	67.62879	55.991	46.37101	696.31592	-402.18529	63.41348	524.00932	-336.73317	125.69982	340.15289	-425.8807	81.83983	141.15309	-590.27855	87.97276	58.28698	-500.04246	128.79297	108.88096	-679.47914
135	5.967	237.79791	1597.28592	-95.36751	108.28612	1582.76016	-104.47457	242.2155	1610.27756	-226.67477	117.24145	1594.76624	-229.81852	267.48554	1338.81683	-179.33788	127.53584	1343.09921	-170.10414	257.65398	1403.63251	-287.17619	107.94438	1414.8526	-269.94925	170.09157	1261.30043	-359.19407	191.8681	1266.31302	-133.25074	187.18111	1178.17612	-97.66915	379.89323	1363.90121	-253.35354	411.33747	1146.51985	-274.72719	389.63264	1037.81715	-293.694	418.63758	932.19826	-273.60502	360.2129	791.32057	-209.74243	421.71207	785.22606	-255.51155	421.17912	738.83118	-210.81781	16.92493	1381.35132	-221.85413	-27.40964	1153.63869	-286.19543	-52.24212	1053.26241	-238.02818	-47.03241	938.69255	-242.41302	-60.26009	804.62509	-187.33866	-61.90656	769.18854	-129.23873	304.50844	949.61533	-155.4597	28.05766	928.28041	-174.34401	258.74161	995.10414	-331.07449	80.04081	991.54564	-340.78136	321.48201	627.54143	-243.92599	297.0607	483.09441	-124.31418	-7.37933	819.28848	-135.57555	291.39042	289.25848	-80.59381	287.07932	100.36331	-82.64845	249.75475	48.36865	-139.3839	254.40968	67.05018	55.78482	53.45029	693.58955	-363.42953	69.68265	522.25639	-291.06079	128.67396	338.98514	-390.70011	82.65117	157.1026	-573.55751	87.61963	58.75614	-494.86153	130.47409	134.63284	-664.76135
136	6	242.14905	1601.47125	-67.12967	112.56127	1589.21295	-77.66509	248.28022	1613.81851	-198.36477	123.08651	1600.49637	-202.86282	270.38717	1344.81628	-147.72354	130.55807	1349.23965	-140.79366	261.51072	1407.59369	-256.20346	112.3948	1419.29291	-241.37753	174.88819	1265.25047	-329.00715	194.17955	1273.116	-101.99212	189.09534	1185.04959	-66.10089	383.28983	1369.38324	-220.20634	415.8812	1152.52357	-238.65955	394.61861	1043.85986	-257.88677	423.61416	938.36807	-234.70236	363.61538	798.09219	-170.34752	426.79832	791.55075	-213.42415	424.62318	745.45563	-167.91798	20.82942	1387.86972	-193.94312	-23.78857	1162.10068	-259.78394	-48.84404	1060.71823	-213.84733	-43.83254	946.26373	-220.29776	-58.95506	811.2249	-167.9854	-61.3768	773.15323	-111.3589	307.94643	955.52292	-122.88643	31.57639	930.53566	-144.24062	262.02841	999.55795	-298.56546	84.72866	993.46367	-309.87356	329.24629	634.24488	-223.99227	304.18722	484.21467	-111.40497	-7.35969	824.44725	-114.62372	296.26507	289.03845	-73.86979	289.46426	100.11145	-81.22168	252.0871	48.72749	-139.20598	255.22095	65.54587	56.62604	59.53216	687.87628	-322.43778	71.21047	517.77672	-239.74928	125.44825	336.24474	-349.70154	85.1053	174.40779	-552.36732	88.13067	58.21808	-488.75328	138.29005	162.56714	-640.3418
137	6.033	246.54428	1603.06824	-39.96237	116.74699	1593.37845	-51.0387	253.66024	1613.75229	-171.30859	128.24327	1602.96829	-176.28628	272.52028	1347.0166	-116.34672	132.67406	1351.10672	-111.595	265.00454	1408.44666	-225.34132	115.89625	1419.89258	-213.03074	180.10834	1265.5262	-298.67947	195.95778	1275.49011	-71.02447	190.67245	1187.3246	-35.16378	386.26545	1371.35559	-187.09492	420.59536	1154.84047	-203.58789	400.92575	1046.1805	-222.98035	429.43886	940.54382	-195.83008	367.87113	801.76422	-130.64739	432.36683	794.19075	-170.8074	428.72608	749.50523	-124.27483	23.78045	1388.93097	-166.6338	-21.03623	1164.80049	-234.07816	-47.51314	1062.71103	-190.05598	-42.53887	948.38943	-197.7417	-58.8014	812.73041	-147.08673	-61.82166	772.70378	-91.93475	311.30924	956.67625	-91.15925	35.17333	929.67575	-116.03505	266.81082	1000.77774	-267.13177	89.70804	992.06276	-282.10558	334.83215	638.16807	-203.37971	309.87999	483.23589	-97.91446	-8.74683	825.35416	-92.7587	299.30271	287.74351	-66.28839	289.6769	99.3258	-78.91742	252.08685	49.38784	-138.33714	254.58368	63.81311	58.39641	64.7522	677.73888	-281.73893	64.57991	511.60763	-188.89429	117.9892	331.09371	-302.2089	86.71783	191.64312	-522.56092	88.0759	58.38103	-480.1321	146.02977	190.86	-604.30744
138	6.067	250.28233	1603.35785	-12.99778	120.3155	1595.58548	-24.39806	257.9612	1611.44836	-144.66548	132.33542	1602.63382	-149.74581	273.88765	1345.11108	-85.60827	133.91115	1348.38303	-83.25249	268.45625	1407.1817	-195.02491	118.31253	1417.9715	-185.04889	185.26453	1263.6779	-269.757	196.82888	1272.87544	-41.65819	191.34628	1184.61937	-6.22306	388.97602	1370.0325	-154.15394	425.4475	1153.42278	-169.06494	407.48291	1044.36905	-188.08216	435.61195	938.99529	-158.05301	373.0661	802.09816	-89.77777	438.16978	793.40721	-128.78192	434.07795	750.79521	-80.41465	25.65146	1385.39551	-140.2185	-18.24042	1161.46423	-210.06363	-46.7194	1059.51042	-167.47458	-42.37309	945.19142	-175.55073	-59.85114	809.46205	-125.76188	-63.45635	768.81882	-70.99027	313.58198	956.12396	-61.34497	37.67906	925.7	-90.93199	270.91007	1000.32242	-238.6162	93.70937	986.36154	-257.40061	340.85472	642.18605	-182.79852	315.06092	483.48461	-83.33494	-10.73748	821.80656	-70.4384	302.4506	286.61564	-57.99235	290.38017	98.80186	-76.99765	252.16005	49.88369	-137.76506	254.52887	63.1305	59.1063	68.99598	663.18253	-241.87277	58.0975	505.91663	-137.60953	111.73486	326.62441	-250.4538	86.78751	206.14952	-481.54079	88.0045	65.08762	-460.04963	148.35337	217.7865	-559.14085
139	6.1	252.96356	1603.34778	14.4616	122.91883	1596.98639	2.77927	260.87765	1609.09744	-117.41873	135.15274	1601.79962	-122.54406	273.74308	1342.21222	-55.84903	133.48999	1344.104	-55.96659	271.14843	1407.02515	-164.42917	119.84774	1416.72394	-157.26041	189.95699	1263.70361	-242.11132	196.60337	1268.2045	-14.2964	190.8688	1179.63318	19.9097	390.93674	1368.58734	-121.318	429.45301	1151.54343	-134.60711	413.433	1041.52298	-152.30753	441.37756	936.76163	-119.87709	378.61195	802.00768	-47.37944	443.615	792.24953	-87.00144	440.21442	751.83792	-37.22699	26.59239	1381.5451	-115.04029	-15.05117	1156.22864	-186.96051	-45.39402	1054.95384	-144.76529	-41.51476	940.88104	-153.55199	-60.54971	804.87297	-105.25115	-66.12578	765.29816	-50.17065	314.16407	957.18781	-33.66138	39.20805	923.15643	-67.69658	273.80713	1000.25558	-212.06915	96.82299	980.73044	-234.45761	347.00851	645.72372	-163.23614	320.06294	483.56983	-70.18053	-12.37429	816.81343	-49.00317	306.07758	285.72613	-50.78076	292.00205	98.29199	-75.86534	253.0479	49.89526	-137.83615	255.13657	62.85347	59.16993	72.42002	653.91068	-201.1401	52.7609	505.00694	-84.4386	108.30426	327.29198	-194.5289	89.37525	220.95123	-432.91988	81.34578	80.31462	-417.5523	154.62858	232.38808	-508.00789
140	6.133	254.57083	1602.91977	42.63782	124.55385	1598.28552	30.9433	262.4264	1607.98584	-89.35772	136.55871	1602.43164	-94.2692	273.03888	1340.88318	-27.58944	132.848	1342.48886	-30.47553	272.87146	1408.76511	-135.15036	121.20017	1417.41501	-131.03828	194.02452	1265.8651	-216.40867	195.54825	1266.03111	11.19519	189.47954	1177.1003	44.42756	391.71501	1369.83612	-89.44357	431.7696	1152.91725	-99.82776	417.897	1042.06184	-115.20459	446.24477	938.57422	-80.61689	383.409	804.4722	-6.63179	449.39682	794.69414	-45.23097	446.22391	755.5484	5.13699	27.34129	1380.97	-91.4921	-11.33828	1154.91615	-164.49503	-42.86267	1054.15924	-122.33115	-39.20826	940.31059	-132.13255	-60.48727	803.8063	-85.65927	-69.1019	765.63889	-30.26245	314.4401	958.44955	-7.6122	40.78492	924.95316	-44.7901	277.20087	1001.24275	-186.28178	100.34251	981.19873	-211.19871	349.04926	648.05023	-145.06079	321.18149	483.34839	-57.29471	-13.63782	814.88022	-28.12069	306.63282	285.12241	-43.72001	292.51814	98.30328	-75.21144	252.91821	49.63265	-137.9991	255.11017	62.75606	59.01144	71.31227	652.4897	-161.19749	49.59634	510.20199	-29.27641	107.43587	330.50152	-134.62883	94.22938	226.07037	-374.09283	76.57945	89.20866	-353.5236	162.25458	232.29881	-448.69606
141	6.167	254.87402	1602.71088	71.82944	124.80139	1599.48715	60.48066	262.341	1609.70673	-60.11803	136.41633	1605.41672	-64.69951	272.11132	1343.65295	-1.07651	132.40301	1345.12268	-6.76926	273.78778	1411.76865	-107.96312	122.2433	1419.61914	-107.05538	197.40139	1268.86597	-191.59718	194.2207	1268.54996	35.50633	187.91656	1179.39964	68.17246	391.77345	1373.7384	-59.66908	433.33549	1157.2068	-64.75734	421.0648	1046.00899	-78.33048	450.04818	943.67561	-41.62213	387.74151	809.46739	32.66805	454.8251	800.53291	-3.85435	450.9882	762.11578	47.26329	27.56673	1383.40942	-69.63695	-8.0231	1157.2213	-142.65641	-40.14002	1056.5686	-101.55233	-35.75437	942.70325	-111.45488	-59.32029	806.40755	-65.90218	-71.52159	769.04388	-10.83292	316.32544	958.60168	16.64143	42.55847	929.78981	-20.95289	279.99878	1002.66914	-161.59046	103.1029	985.22217	-187.33421	346.2392	649.56779	-127.79068	319.12905	483.3075	-44.206	-14.9689	816.83464	-6.54816	305.06727	284.44613	-36.69562	291.49017	98.65762	-74.44221	252.26967	50.06827	-138.11514	254.68212	62.70702	59.0112	67.5787	653.86246	-121.70019	49.39869	520.52986	23.38743	108.57858	335.38918	-73.25213	95.22242	218.76192	-307.84346	74.3346	89.31218	-274.62795	164.88327	218.57002	-384.11385
